# xmcd
# 
# Track frame offsets:
#     151
#     15385
#     31629
#     44787
#     62380
#     76566
#     93165
#     113255
#     129901
#     147123
#     162587
#     172582
#     183934
#     200953
#     217427
# 
# Disc length: 3165
# 
# Revision: 6
# Processed by: cddbd v1.5.2PL0 Copyright (c) Steve Scherf et al.
# Submitted via: fre:ac v1.0.31
# 
DISCID=b90c5b0f
DTITLE=Richard and Linda Thompson - Hokey Pokey
DYEAR=1975
DGENRE=Folk/Country
TTITLE0=Hokey Pokey (The Ice Cream Song)
TTITLE1=I'll Regret It All in the Morning
TTITLE2=Smiffy's Glass Eye
TTITLE3=The Egypt Room
TTITLE4=Never Again
TTITLE5=Georgie on a Spree
TTITLE6=Old Man Inside a Young Man
TTITLE7=The Sun Never Shines on the Poor
TTITLE8=A Heart Needs a Home
TTITLE9=Mole in a Hole
TTITLE10=Wishing (BBC Session)
TTITLE11=I'm Turning off a Memory (BBC Session)
TTITLE12=A Heart Needs a Home (BBC Session)
TTITLE13=Hokey Pokey (Live)
TTITLE14=It'll Be Me (Live)
EXTD=YEAR: 1975
EXTT0=
EXTT1=
EXTT2=
EXTT3=
EXTT4=
EXTT5=
EXTT6=
EXTT7=
EXTT8=
EXTT9=
EXTT10=
EXTT11=
EXTT12=
EXTT13=
EXTT14=
PLAYORDER=
